# xmcd CD database file
#
# Track frame offsets:
#	150
#	29621
#	61902
#	88476
#	116405
#	174230
#	195252
#	217410
#	268320
#	289471
#	315032
#	344744
#
# Disc length: 4716 seconds
#
# Revision: 0
# Processed by: cddbd v1.5.2PL0 Copyright (c) Steve Scherf et al.
# Submitted via: CDex 1.51
#
DISCID=bd126a0c
DTITLE=Neil Ardley's New Jazz Orchestra - Camden '70
DYEAR=2008
DGENRE=Jazz
TTITLE0=Stratusfunk
TTITLE1=Tanglewood
TTITLE2=Shades of Blue
TTITLE3=Rope Ladder to the Moon
TTITLE4=Dusk Fire
TTITLE5=Naima
TTITLE6=Nardis
TTITLE7=Study
TTITLE8=Rebirth
TTITLE9=Ballad
TTITLE10=Le Dejeuner sur L'Herbe
TTITLE11=National Anthemn and Tango
EXTD=YEAR: 2008
EXTT0=
EXTT1=
EXTT2=
EXTT3=
EXTT4=
EXTT5=
EXTT6=
EXTT7=
EXTT8=
EXTT9=
EXTT10=
EXTT11=
PLAYORDER=
